<svg xmlns="http://www.w3.org/2000/svg" width="32" height="32" viewBox="0 0 24 24" fill="none" stroke="currentColor" stroke-width="2" stroke-linecap="round" stroke-linejoin="round">
  <rect width="24" height="24" rx="5" fill="#0f172a" />
  <path d="M12.83 2.18a2 2 0 0 0-1.66 0L2.6 6.08a1 1 0 0 0 0 1.83l8.58 3.91a2 2 0 0 0 1.66 0l8.58-3.9a1 1 0 0 0 0-1.83z" stroke="#ffffff" transform="scale(0.8) translate(3,3)" />
  <path d="M2 12a1 1 0 0 0 .58.91l8.6 3.91a2 2 0 0 0 1.65 0l8.58-3.9A1 1 0 0 0 22 12" stroke="#ffffff" transform="scale(0.8) translate(3,3)" />
  <path d="M2 17a1 1 0 0 0 .58.91l8.6 3.91a2 2 0 0 0 1.65 0l8.58-3.9A1 1 0 0 0 22 17" stroke="#ffffff" transform="scale(0.8) translate(3,3)" />
  <circle cx="19" cy="19" r="3" fill="#2563eb" stroke="#0f172a" stroke-width="2" transform="scale(0.8) translate(3,3)" />
  <circle cx="19" cy="19" r="1.5" fill="white" stroke="none" transform="scale(0.8) translate(3,3)" />
</svg>
